<?xml version="1.0" encoding="UTF-8" standalone="no"?>
<svg
   width="45"
   zoomAndPan="magnify"
   viewBox="0 0 33.75 33.749999"
   height="45"
   preserveAspectRatio="xMidYMid"
   version="1.0"
   id="svg98"
   xmlns="http://www.w3.org/2000/svg"
   xmlns:svg="http://www.w3.org/2000/svg">
  <defs
     id="defs1">
    <clipPath
       id="eb518f4c27">
      <path
         d="M 77.179688,123.32031 H 108.67969 V 154 H 77.179688 Z m 0,0"
         clip-rule="nonzero"
         id="path1" />
    </clipPath>
  </defs>
  <path
     fill="#2384eb"
     d="m 16.968,15.685234 c -1.449219,0 -2.625,1.17968 -2.625,2.625 0,1.44531 1.175781,2.625 2.625,2.625 1.445312,0 2.621093,-1.17969 2.621093,-2.625 0,-1.44532 -1.175781,-2.625 -2.621093,-2.625 z m 0,4.16015 c -0.847657,0 -1.539063,-0.6875 -1.539063,-1.53515 0,-0.84766 0.691406,-1.53516 1.539063,-1.53516 0.84375,0 1.535156,0.6875 1.535156,1.53516 0,0.84765 -0.691406,1.53515 -1.535156,1.53515 z m 0,0"
     fill-opacity="1"
     fill-rule="nonzero"
     id="path25" />
  <g
     clip-path="url(#eb518f4c27)"
     id="g26"
     transform="translate(-75.992938,-121.00618)">
    <path
       fill="#2384eb"
       d="m 106.11328,145.49609 c -0.58984,0 -1.1289,0.20313 -1.5664,0.53516 l -6.429692,-4.21484 c 0.367187,-0.75782 0.59375,-1.60157 0.59375,-2.5 0,-1.74219 -0.796876,-3.28907 -2.023438,-4.34375 l 4.32422,-6.3125 c 0.23828,0.0703 0.48828,0.125 0.75,0.125 1.44531,0 2.625,-1.17969 2.625,-2.625 0,-1.44532 -1.17969,-2.625 -2.625,-2.625 -1.44531,0 -2.621095,1.17968 -2.621095,2.625 0,0.79297 0.359375,1.49218 0.914065,1.97265 l -4.257815,6.21094 c -0.839844,-0.48047 -1.800781,-0.77734 -2.835937,-0.77734 -1.472657,0 -2.804688,0.57031 -3.824219,1.48437 l -2.957031,-3.08594 c 0.371093,-0.45312 0.597656,-1.01953 0.597656,-1.64453 0,-1.44922 -1.175782,-2.625 -2.621094,-2.625 -1.449219,0 -2.625,1.17578 -2.625,2.625 0,1.44531 1.179688,2.6211 2.625,2.6211 0.425781,0 0.820312,-0.10938 1.175781,-0.28907 l 3.066407,3.19922 c -0.738282,0.96485 -1.191407,2.16016 -1.191407,3.46485 0,0.89843 0.226563,1.73828 0.59375,2.5 l -6.082031,3.9414 c -0.480469,-0.51562 -1.15625,-0.84765 -1.917969,-0.84765 -1.445312,0 -2.621093,1.17968 -2.621093,2.625 0,1.44531 1.175781,2.625 2.621093,2.625 1.449219,0 2.625,-1.17969 2.625,-2.625 0,-0.29688 -0.05859,-0.57422 -0.148437,-0.83985 l 6.089844,-3.95312 c 0.816406,1.09375 2,1.89062 3.375,2.1914 l -0.167969,3.44922 c -1.296875,0.16016 -2.308594,1.25391 -2.308594,2.59375 0,1.44531 1.175781,2.6211 2.625,2.6211 1.445313,0 2.621094,-1.17579 2.621094,-2.6211 0,-1.17969 -0.785157,-2.16406 -1.855469,-2.49609 l 0.171875,-3.42578 c 0.04297,0 0.08594,0.0117 0.128906,0.0117 1.882813,0 3.542969,-0.92188 4.59375,-2.32032 l 6.273439,4.11328 c -0.20313,0.375 -0.33594,0.80079 -0.33594,1.25782 0,1.44922 1.17969,2.625 2.625,2.625 1.44531,0 2.6211,-1.17578 2.6211,-2.625 0,-1.44532 -1.17188,-2.6211 -2.6211,-2.6211 z M 101.76172,124.625 c 0.84766,0 1.53516,0.6875 1.53516,1.53516 0,0.84765 -0.6875,1.53515 -1.53516,1.53515 -0.84375,0 -1.53516,-0.6875 -1.53516,-1.53515 0,-0.84766 0.69141,-1.53516 1.53516,-1.53516 z m -21.957032,24.44531 c -0.847657,0 -1.535157,-0.6875 -1.535157,-1.53515 0,-0.84766 0.6875,-1.53516 1.535157,-1.53516 0.84375,0 1.535156,0.6875 1.535156,1.53516 0,0.84765 -0.691406,1.53515 -1.535156,1.53515 z m 13.621093,1.90625 c 0,0.84375 -0.6875,1.53516 -1.535156,1.53516 -0.847656,0 -1.535156,-0.69141 -1.535156,-1.53516 0,-0.84765 0.6875,-1.53515 1.535156,-1.53515 0.847656,0 1.535156,0.6875 1.535156,1.53515 z M 82.621094,130.32031 c 0,-0.84765 0.6875,-1.53515 1.535156,-1.53515 0.847656,0 1.535156,0.6875 1.535156,1.53515 0,0.84375 -0.6875,1.53516 -1.535156,1.53516 -0.847656,0 -1.535156,-0.69141 -1.535156,-1.53516 z m 10.339844,13.66016 c -2.574219,0 -4.667969,-2.08985 -4.667969,-4.66406 0,-2.57422 2.09375,-4.66407 4.667969,-4.66407 2.570312,0 4.664062,2.08985 4.664062,4.66407 0,2.57421 -2.09375,4.66406 -4.664062,4.66406 z m 13.152342,5.67578 c -0.84375,0 -1.53125,-0.69141 -1.53125,-1.53906 0,-0.84375 0.6875,-1.53516 1.53125,-1.53516 0.84766,0 1.53516,0.69141 1.53516,1.53516 0,0.84765 -0.6875,1.53906 -1.53516,1.53906 z m 0,0"
       fill-opacity="1"
       fill-rule="nonzero"
       id="path26" />
  </g>
</svg>
